<?xml version="1.0" encoding="UTF-8" standalone="no"?>
<svg
   version="1.1"
   width="1080"
   height="1080"
   viewBox="0 0 1080 1080"
   xml:space="preserve"
   id="svg30"
   sodipodi:docname="logo.svg"
   inkscape:version="1.1 (c68e22c387, 2021-05-23)"
   inkscape:export-filename="C:\Users\kiefe\Documents\DevStuff\LeagueOfInfo\src\main\resources\icon.png"
   inkscape:export-xdpi="423.33301"
   inkscape:export-ydpi="423.33301"
   xmlns:inkscape="http://www.inkscape.org/namespaces/inkscape"
   xmlns:sodipodi="http://sodipodi.sourceforge.net/DTD/sodipodi-0.dtd"
   xmlns="http://www.w3.org/2000/svg"
   xmlns:svg="http://www.w3.org/2000/svg"><sodipodi:namedview
   id="namedview32"
   pagecolor="#505050"
   bordercolor="#eeeeee"
   borderopacity="1"
   inkscape:pageshadow="0"
   inkscape:pageopacity="0"
   inkscape:pagecheckerboard="0"
   showgrid="false"
   inkscape:zoom="0.19259259"
   inkscape:cx="-584.13461"
   inkscape:cy="662.01923"
   inkscape:window-width="2560"
   inkscape:window-height="1017"
   inkscape:window-x="-8"
   inkscape:window-y="-8"
   inkscape:window-maximized="1"
   inkscape:current-layer="g26" />
<desc
   id="desc2">Created with Fabric.js 4.2.0</desc>
<defs
   id="defs4">
</defs>

<g
   transform="matrix(1 0 0 1 540 540)"
   id="bea635e4-b09a-4e65-85dc-8b8babdae9ac">
</g>
<g
   transform="matrix(30.805,0,0,30.805,540.06497,540)"
   id="g28">
<g
   vector-effect="non-scaling-stroke"
   id="g26">
		<g
   transform="translate(-14.1,0.77)"
   id="g12"
   style="fill:#076c78;fill-opacity:1">
<path
   style="opacity:1;fill:#076c78;fill-rule:nonzero;stroke:none;stroke-width:1;stroke-linecap:butt;stroke-linejoin:miter;stroke-miterlimit:4;stroke-dasharray:none;stroke-dashoffset:0;fill-opacity:1"
   vector-effect="non-scaling-stroke"
   transform="translate(-0.9,-16.77)"
   d="M 1.80644,9.75049 C 0.655032,11.8373 0,14.2271 0,16.7683 c 0,2.5412 0.655032,4.9332 1.80644,7.02 z"
   stroke-linecap="round"
   id="path10" />
</g>
		<g
   transform="translate(5.73,-0.52)"
   id="g16"
   style="fill:#076c78;fill-opacity:1">
<path
   style="opacity:1;fill:#076c78;fill-rule:nonzero;stroke:none;stroke-width:1;stroke-linecap:butt;stroke-linejoin:miter;stroke-miterlimit:4;stroke-dasharray:none;stroke-dashoffset:0;fill-opacity:1"
   vector-effect="non-scaling-stroke"
   transform="translate(-20.74,-15.48)"
   d="m 15,2.02222 c -1.2171,0 -2.398,0.14699 -3.5312,0.41425 V 4.75718 C 12.5907,4.44093 13.7738,4.26721 15,4.26721 c 7.0218,0 12.7153,5.57906 12.7153,12.46329 0,3.1002 -1.1582,5.9354 -3.0689,8.1158 l -0.3626,1.2717 -0.8024,2.8151 c 3.937,-2.657 6.5209,-7.1136 6.5209,-12.1626 C 30,8.62355 23.2843,2.02222 15,2.02222 Z"
   stroke-linecap="round"
   id="path14" />
</g>
		<g
   transform="translate(3.92,-1)"
   id="g20"
   style="fill:#16a3b4;fill-opacity:1">
<path
   style="opacity:1;fill:#16a3b4;fill-rule:nonzero;stroke:none;stroke-width:1;stroke-linecap:butt;stroke-linejoin:miter;stroke-miterlimit:4;stroke-dasharray:none;stroke-dashoffset:0;fill-opacity:1"
   vector-effect="non-scaling-stroke"
   transform="translate(-18.92,-15)"
   d="m 11.4688,24.4209 h 11.5049 0.2516 c 1.947,-2 3.146,-4.7083 3.146,-7.6904 0,-6.1559 -5.0907,-11.14481 -11.3713,-11.14481 -1.233,0 -2.4184,0.19599 -3.5312,0.55011 z"
   stroke-linecap="round"
   id="path18" />
</g>
		<g
   transform="translate(-2.74)"
   id="g24">
<path
   style="opacity:1;fill:#c28f2c;fill-rule:nonzero;stroke:none;stroke-width:1;stroke-linecap:butt;stroke-linejoin:miter;stroke-miterlimit:4;stroke-dasharray:none;stroke-dashoffset:0"
   vector-effect="non-scaling-stroke"
   transform="translate(-12.26,-16)"
   d="M 10.1088,0 H 1.55029 L 3.16634,3.29844 V 28.7038 L 1.55029,32 H 21.1922 l 1.7815,-6.2428 H 10.1088 Z"
   stroke-linecap="round"
   id="path22" />
</g>
</g>
</g>
</svg>
